<svg xmlns="http://www.w3.org/2000/svg" viewBox="0 0 30 21" height="21" width="30" >
  <path d="M 1.25 2 H 28.75 C 29.4404 2 30 1.5523 30 1 C 30 0.4477 29.4404 0 28.75 0 H 1.25 C 0.5596 0 0 0.4477 0 1 C 0 1.5523 0.5596 2 1.25 2 Z M 28.75 10 H 1.25 C 0.5596 10 0 10.4477 0 11 C 0 11.5523 0.5596 12 1.25 12 H 28.75 C 29.4404 12 30 11.5523 30 11 C 30 10.4477 29.4404 10 28.75 10 Z M 28.75 19 H 1.25 C 0.5596 19 0 19.4477 0 20 C 0 20.5523 0.5596 21 1.25 21 H 28.75 C 29.4404 21 30 20.5523 30 20 C 30 19.4477 29.4404 19 28.75 19 Z" fill="#2333333"/>
</svg>